<svg xmlns="http://www.w3.org/2000/svg" viewBox="0 0 4223.7 631.6" width="1056" height="158" role="img" aria-label="MarkaDenetim"><title>MarkaDenetim</title><g transform="translate(0 87.94)"><path fill="#000000" d="M0 300V282.62L46.65 276.32H56.3L99.52 282.62V300ZM4.31 17.37V-0.01H59.62L59.74 23.9H54.73ZM40.25 300V1.09H59.41L62.53 140.01V300ZM159.08 300 48.81 18.03H44.94V-0.01H89.99L189.69 255.45H175.87L179.02 246.85L271.59 -0.01H291.87V16.99H287.88L282.86 30.06L181.99 300ZM239.38 300V282.62L291.96 276.08H305.46L362.84 282.62V300ZM274.49 300Q275.39 278.01 275.64 254.89Q275.88 231.77 275.96 208.25Q276.03 184.73 276.03 162.17L276.33 -0.01H324.71Q324.17 21.62 323.72 45.03Q323.27 68.44 323.26 92.18Q323.25 115.91 323.25 139.58V160.15Q323.25 183.3 323.26 207.23Q323.27 231.17 323.72 254.47Q324.17 277.77 324.71 300ZM297.53 23.9V-0.01H362.54V17.37L305.46 23.9Z M447.25 300V282.62L490.19 276.32H498.96L545.26 282.62V300ZM475.56 300 577.74 -2.12H607.17L709.37 300H659.31L574.23 39.34H582.91L580.75 45.78L496.26 300ZM521.85 203.08V183H648.96V203.08ZM610.91 300V282.8L664.96 276.26H681.37L733.9 282.8V300Z M820.26 300V282.62L877.94 276.08H890.08L947.46 282.62V300ZM858.45 300Q859.35 278.07 859.63 254.92Q859.9 231.77 859.91 207.68Q859.92 183.6 859.92 160.15V139.58Q859.92 116.21 859.91 92.48Q859.9 68.74 859.63 45.33Q859.37 21.92 858.47 -0.01H909.18Q908.72 22.16 908.27 45.39Q907.82 68.62 907.81 92.69Q907.81 116.75 907.81 142.29V157.08Q907.81 181.74 907.81 206.24Q907.82 230.75 908.27 254.23Q908.72 277.71 909.18 300ZM1052.88 304.73Q1030.21 304.73 1018.55 297.58Q1006.88 290.43 1002.35 272.13L983.96 204.71Q979.69 187.18 972.72 177.8Q965.75 168.43 954.91 164.82Q944.08 161.22 927.03 161.22H883.63V141.95H938.04Q961.63 141.95 976.56 133.55Q991.49 125.16 998.52 110.81Q1005.55 96.47 1005.55 78.86Q1005.55 50.15 990.27 34.93Q974.99 19.71 942.32 19.71H883.18V-0.01H947.01Q997.92 -0.01 1026.1 20.3Q1054.29 40.62 1054.29 77.42Q1054.29 96.3 1044.05 113.52Q1033.81 130.75 1012.34 142.07Q990.87 153.39 957.17 155.51V151.82Q974.35 152.54 987.07 156.29Q999.79 160.03 1008.8 167.32Q1017.8 174.61 1024.06 185.9Q1030.32 197.19 1035.06 213.14L1058 288.22L1038.14 276.96L1089.34 282.62V300Q1083.67 301.47 1078.09 302.46Q1072.51 303.46 1066.49 304.1Q1060.48 304.73 1052.88 304.73ZM820.26 17.37V-0.01H885.57V23.9H877.94Z M1213.77 300Q1214.67 278.07 1214.95 254.92Q1215.23 231.77 1215.23 207.68Q1215.24 183.6 1215.24 160.15V139.58Q1215.24 116.21 1215.23 92.48Q1215.23 68.74 1214.96 45.33Q1214.69 21.92 1213.79 -0.01H1263.08Q1262.54 21.56 1262.09 44.94Q1261.64 68.32 1261.64 92.09Q1261.63 115.85 1261.63 139.58V167.6Q1261.63 187.14 1261.64 209.4Q1261.64 231.65 1262.09 254.68Q1262.54 277.71 1263.08 300ZM1175.58 300V282.62L1233.26 276.08H1245.09L1301.16 282.62V300ZM1175.58 17.37V-0.01H1302.11V17.37L1245.09 23.9H1233.26ZM1336.91 300V282.62L1390.74 276.08H1400.41L1452.7 282.62V300ZM1342.54 17.37V-0.01H1444.91V17.37L1396.45 23.9L1386.39 25.1ZM1238.31 223.36 1236.87 193.91H1239.94L1252.01 178.99L1395.62 -0.01H1421.74ZM1381.19 300 1296.01 137.29 1324.89 102.81 1432.54 300Z M1515.91 300V282.62L1558.85 276.32H1567.62L1613.92 282.62V300ZM1544.23 300 1646.41 -2.12H1675.84L1778.03 300H1727.98L1642.9 39.34H1651.58L1649.42 45.78L1564.92 300ZM1590.51 203.08V183H1717.62V203.08ZM1679.58 300V282.8L1733.62 276.26H1750.03L1802.56 282.8V300Z M1885.33 300V282.62L1943.01 276.08H1949.42V300ZM1923.52 300Q1924.42 278.07 1924.7 254.77Q1924.97 231.47 1924.98 206.63Q1924.99 181.79 1924.99 156.54V139.58Q1924.99 116.21 1924.98 92.48Q1924.97 68.74 1924.7 45.33Q1924.43 21.92 1923.53 -0.01H1974.56Q1974.02 21.56 1973.58 44.94Q1973.13 68.32 1973.12 92.09Q1973.11 115.85 1973.11 139.58V156.48Q1973.11 181.43 1973.12 206.09Q1973.13 230.75 1973.58 254.23Q1974.02 277.71 1974.56 300ZM1949.88 300V279.98H2004.24Q2037.02 279.98 2059.8 264.49Q2082.59 249 2094.54 220.01Q2106.49 191.02 2106.49 150.29Q2106.49 86.18 2080.38 52.94Q2054.27 19.71 2007.54 19.71H1949.88V-0.01H2013.96Q2057.86 -0.01 2090.62 17.59Q2123.37 35.19 2141.55 68.53Q2159.73 101.88 2159.73 150.09Q2159.73 198.29 2139.91 231.74Q2120.09 265.19 2085.57 282.59Q2051.05 300 2006.78 300ZM1885.33 17.37V-0.01H1949.42V23.9H1943.01Z M2260.44 300V282.62L2318.12 276.08H2325.6V300ZM2298.63 300Q2299.53 278.07 2299.81 254.92Q2300.08 231.77 2300.09 207.68Q2300.1 183.6 2300.1 160.15V139.58Q2300.1 116.22 2300.09 92.47Q2300.08 68.71 2299.81 45.32Q2299.55 21.92 2298.65 -0.01H2349.68Q2349.14 21.56 2348.69 44.96Q2348.24 68.36 2348.23 92.11Q2348.22 115.85 2348.22 139.58V156.48Q2348.22 181.43 2348.23 206.09Q2348.24 230.75 2348.69 254.23Q2349.14 277.71 2349.68 300ZM2324.03 300V279.32H2468.52L2452.57 291.25L2467.9 219.52H2492.17L2488.57 300ZM2324.03 156.8V136.6H2421.07V156.8ZM2416.67 198.06 2408.46 149.87V141.08L2416.67 95.01H2435.76V198.06ZM2260.44 17.37V-0.01H2325.6V23.9H2318.12ZM2459.27 79.32 2443.92 8.8 2459.88 20.73H2323.6V-0.01H2479.95L2483.53 79.32Z M2586.53 300V282.62L2632.41 276.32H2642.05L2693.43 282.62V300ZM2624.51 300V9.82H2646.56V149.99V300ZM2770.81 17.37V-0.01H2876.8V17.37L2833.44 23.66H2824.16ZM2820.27 302.7 2643 47.75H2642.01L2623.95 20.83L2588.62 17.42V-0.01H2666.74L2824.32 227.1L2817.56 228.95V146.43V-0.01H2839.62V302.7Z M2974.68 300V282.62L3032.36 276.08H3039.85V300ZM3012.87 300Q3013.77 278.07 3014.05 254.92Q3014.33 231.77 3014.34 207.68Q3014.34 183.6 3014.34 160.15V139.58Q3014.34 116.22 3014.34 92.47Q3014.33 68.71 3014.06 45.32Q3013.79 21.92 3012.89 -0.01H3063.92Q3063.38 21.56 3062.93 44.96Q3062.48 68.36 3062.47 92.11Q3062.47 115.85 3062.47 139.58V156.48Q3062.47 181.43 3062.47 206.09Q3062.48 230.75 3062.93 254.23Q3063.38 277.71 3063.92 300ZM3038.28 300V279.32H3182.76L3166.81 291.25L3182.15 219.52H3206.41L3202.81 300ZM3038.28 156.8V136.6H3135.31V156.8ZM3130.92 198.06 3122.7 149.87V141.08L3130.92 95.01H3150.01V198.06ZM2974.68 17.37V-0.01H3039.85V23.9H3032.36ZM3173.51 79.32 3158.16 8.8 3174.13 20.73H3037.84V-0.01H3194.19L3197.77 79.32Z M3351.83 300V282.62L3413.17 276.08H3426.61L3488.19 282.62V300ZM3394.64 300Q3395.54 278.07 3395.81 254.92Q3396.09 231.77 3396.1 207.68Q3396.11 183.6 3396.11 160.15V139.58Q3396.11 116.22 3396.1 92.47Q3396.09 68.71 3395.82 45.32Q3395.55 21.92 3394.65 -0.01H3445.38Q3444.84 21.56 3444.39 44.96Q3443.94 68.36 3443.94 92.11Q3443.93 115.85 3443.93 139.58V160.09Q3443.93 183.24 3443.94 207.14Q3443.94 231.05 3444.39 254.38Q3444.84 277.71 3445.38 300ZM3293.94 81.72 3297.54 -0.01H3542.55L3546.1 81.72H3521.59L3505.02 1.07L3527.1 20.73H3312.94L3335.07 1.07L3318.5 81.72Z M3636.75 300V282.62L3694.43 276.08H3706.26L3764.18 282.62V300ZM3674.94 300Q3675.84 278.07 3676.12 254.92Q3676.4 231.77 3676.4 207.68Q3676.41 183.6 3676.41 160.15V139.58Q3676.41 116.22 3676.4 92.47Q3676.4 68.71 3676.12 45.32Q3675.84 21.92 3674.94 -0.01H3726Q3725.46 21.56 3725.01 44.96Q3724.55 68.36 3724.54 92.11Q3724.53 115.85 3724.53 139.58V160.09Q3724.53 183.24 3724.54 207.14Q3724.55 231.05 3725 254.38Q3725.45 277.71 3725.99 300ZM3636.75 17.37V-0.01H3764.18V17.37L3706.26 23.9H3694.43ZM3700.61 -29.16Q3687.83 -29.16 3678.88 -37.39Q3669.93 -45.61 3669.93 -58.51Q3669.93 -71.85 3678.87 -79.9Q3687.82 -87.94 3700.65 -87.94Q3713.74 -87.94 3722.55 -79.9Q3731.36 -71.85 3731.36 -58.51Q3731.36 -45.61 3722.55 -37.39Q3713.74 -29.16 3700.61 -29.16Z M3860.87 300V282.62L3907.52 276.32H3917.17L3960.39 282.62V300ZM3865.18 17.37V-0.01H3920.49L3920.61 23.9H3915.6ZM3901.12 300V1.09H3920.28L3923.4 140.01V300ZM4019.95 300 3909.68 18.03H3905.81V-0.01H3950.86L4050.56 255.45H4036.74L4039.89 246.85L4132.46 -0.01H4152.73V16.99H4148.75L4143.73 30.06L4042.86 300ZM4100.25 300V282.62L4152.83 276.08H4166.33L4223.71 282.62V300ZM4135.36 300Q4136.26 278.01 4136.5 254.89Q4136.75 231.77 4136.83 208.25Q4136.9 184.73 4136.9 162.17L4137.2 -0.01H4185.58Q4185.04 21.62 4184.59 45.03Q4184.14 68.44 4184.13 92.18Q4184.12 115.91 4184.12 139.58V160.15Q4184.12 183.3 4184.13 207.23Q4184.14 231.17 4184.59 254.47Q4185.04 277.77 4185.58 300ZM4158.39 23.9V-0.01H4223.41V17.37L4166.33 23.9Z"/><path fill="#000000" d="M52.02 512.85H35.3V472.37L0 410H18.8L43.94 455.86H44.32L69.09 410H87.57L52.02 472.05Z M197.27 512.85H131.42V410H197.27V424.74H148.07V453.5H192.69V468.18H148.07V498.11H197.27Z M248.27 512.85V410H267.85L284.85 442.05L295.5 462.32H296.05L306.72 442.05L323.65 410H342.96V512.85H327.04V451.06V434.39H326.43L318.24 450.68L295.58 491.89L273.12 450.75L264.8 433.95H264.19V451.06V512.85Z M437.87 512.85H393.34V499.33H407.28V423.52H393.34V410H437.87V423.52H423.94V499.33H437.87ZM415.61 399.68Q410.16 399.68 407.72 397.16Q405.28 394.65 405.28 390.8V387.79Q405.28 383.94 407.72 381.43Q410.16 378.91 415.61 378.91Q421.2 378.91 423.57 381.43Q425.94 383.94 425.94 387.79V390.8Q425.94 394.65 423.57 397.16Q421.2 399.68 415.61 399.68Z M549.52 512.85 515.97 456.12 504.66 434.22H504.22V456.5V512.85H488.3V410H506.94L540.48 466.73L551.79 488.63H552.23V466.35V410H568.15V512.85Z M681.45 512.85H622.98V410H639.64V498.11H681.45Z M768.09 512.85H723.56V499.33H737.49V423.52H723.56V410H768.09V423.52H754.15V499.33H768.09ZM745.82 399.68Q740.37 399.68 737.93 397.16Q735.49 394.65 735.49 390.8V387.79Q735.49 383.94 737.93 381.43Q740.37 378.91 745.82 378.91Q751.41 378.91 753.78 381.43Q756.15 383.94 756.15 387.79V390.8Q756.15 394.65 753.78 397.16Q751.41 399.68 745.82 399.68Z  M882.76 512.85V410H902.34L919.34 442.05L929.99 462.32H930.54L941.21 442.05L958.14 410H977.45V512.85H961.53V451.06V434.39H960.92L952.73 450.68L930.07 491.89L907.61 450.75L899.29 433.95H898.68V451.06V512.85Z M1113.64 512.85H1096.27L1087.21 485.01H1048.75L1039.69 512.85H1022.82L1057.9 410H1078.76ZM1083.11 470.65 1072.98 440.16 1068.24 425.27H1067.51L1062.83 440.16L1052.7 470.65Z M1217.51 512.85H1159.04V410H1175.7V498.11H1217.51Z M1304.15 512.85H1259.62V499.33H1273.55V423.52H1259.62V410H1304.15V423.52H1290.21V499.33H1304.15ZM1281.88 399.68Q1276.43 399.68 1273.99 397.16Q1271.55 394.65 1271.55 390.8V387.79Q1271.55 383.94 1273.99 381.43Q1276.43 378.91 1281.88 378.91Q1287.48 378.91 1289.84 381.43Q1292.21 383.94 1292.21 387.79V390.8Q1292.21 394.65 1289.84 397.16Q1287.48 399.68 1281.88 399.68Z  M1418.82 512.85V410H1438.41L1455.4 442.05L1466.05 462.32H1466.6L1477.27 442.05L1494.2 410H1513.51V512.85H1497.59V451.06V434.39H1496.98L1488.79 450.68L1466.14 491.89L1443.67 450.75L1435.35 433.95H1434.74V451.06V512.85Z M1567.71 410H1584.11V473.4Q1584.11 482.06 1586.25 487.95Q1588.39 493.83 1593.23 496.81Q1598.07 499.79 1606.14 499.79Q1614.2 499.79 1619.02 496.81Q1623.83 493.83 1626 487.95Q1628.17 482.06 1628.17 473.4V410H1644.57V470.71Q1644.57 485.72 1640.8 495.48Q1637.04 505.25 1628.53 509.94Q1620.03 514.62 1605.89 514.62Q1591.74 514.62 1583.41 509.94Q1575.07 505.25 1571.39 495.48Q1567.71 485.72 1567.71 470.71ZM1591.2 398.44Q1586.25 398.44 1584.1 396.18Q1581.94 393.91 1581.94 390.51V387.92Q1581.94 384.51 1584.1 382.25Q1586.25 379.99 1591.2 379.99Q1596.22 379.99 1598.34 382.25Q1600.45 384.51 1600.45 387.92V390.51Q1600.45 393.91 1598.34 396.18Q1596.22 398.44 1591.2 398.44ZM1620.74 398.44Q1615.8 398.44 1613.64 396.18Q1611.49 393.91 1611.49 390.51V387.92Q1611.49 384.51 1613.64 382.25Q1615.8 379.99 1620.74 379.99Q1625.77 379.99 1627.88 382.25Q1630 384.51 1630 387.92V390.51Q1630 393.91 1627.88 396.18Q1625.77 398.44 1620.74 398.44Z M1730.2 422.91Q1721.34 422.91 1716.52 426.49Q1711.69 430.07 1711.69 436.81Q1711.69 441.11 1713.45 443.91Q1715.21 446.71 1718.82 448.44Q1722.43 450.17 1727.97 451.33L1737.13 453.12Q1747.4 455.08 1753.99 458.91Q1760.58 462.74 1763.75 468.59Q1766.93 474.44 1766.93 482.61Q1766.93 496.2 1758.13 504.87Q1749.34 513.55 1733.34 514.47L1731.93 521.46L1732.43 521.97Q1734.03 521.52 1735.63 521.27Q1737.23 521.02 1738.75 521.02Q1743.08 521.02 1746.08 523.46Q1749.08 525.9 1749.08 530.93Q1749.08 535.44 1746.58 538.26Q1744.07 541.08 1740.08 542.37Q1736.08 543.67 1731.4 543.67Q1724.76 543.67 1720.87 541.61Q1716.99 539.56 1715.24 537.44L1721.35 530.45Q1722.74 532.14 1725.04 533.39Q1727.35 534.64 1730.65 534.64Q1733.45 534.64 1735.29 533.63Q1737.13 532.62 1737.13 530.45Q1737.13 528.58 1735.15 526.9Q1733.18 525.23 1726.67 524.47L1722.99 524.01L1724.9 514.47Q1713.89 513.67 1705.85 509.05Q1697.81 504.43 1692.03 497.21L1703.55 486.46Q1708.88 493.12 1715.48 496.53Q1722.08 499.94 1730.44 499.94Q1740.29 499.94 1745.33 495.45Q1750.36 490.97 1750.36 483.51Q1750.36 479.53 1748.85 476.61Q1747.35 473.69 1743.84 471.72Q1740.33 469.75 1734.37 468.66L1725.22 467Q1715.31 465.1 1708.6 461.41Q1701.9 457.71 1698.51 451.77Q1695.12 445.82 1695.12 437.7Q1695.12 428.5 1699.55 421.92Q1703.98 415.34 1712.09 411.79Q1720.21 408.23 1731.11 408.23Q1742.75 408.23 1751.29 412.28Q1759.84 416.34 1765.84 424.02L1754.16 434.32Q1750.23 429.12 1744.49 426.02Q1738.75 422.91 1730.2 422.91Z M1897.84 512.85H1880.47L1871.41 485.01H1832.94L1823.89 512.85H1807.02L1842.09 410H1862.96ZM1867.31 470.65 1857.18 440.16 1852.44 425.27H1851.71L1847.03 440.16L1836.9 470.65Z M1986.17 512.85H1966.86L1933.11 410H1950.4L1966.65 460.8L1976.62 496.7H1977.23L1987.23 460.8L2003.57 410H2020.29Z M2105.14 512.85H2060.61V499.33H2074.55V423.52H2060.61V410H2105.14V423.52H2091.21V499.33H2105.14ZM2082.88 399.68Q2077.43 399.68 2074.99 397.16Q2072.55 394.65 2072.55 390.8V387.79Q2072.55 383.94 2074.99 381.43Q2077.43 378.91 2082.88 378.91Q2088.47 378.91 2090.84 381.43Q2093.21 383.94 2093.21 387.79V390.8Q2093.21 394.65 2090.84 397.16Q2088.47 399.68 2082.88 399.68Z M2172.23 471.41V512.85H2155.57V410H2199.87Q2209.11 410 2215.74 413.7Q2222.37 417.41 2225.99 424.27Q2229.61 431.13 2229.61 440.75Q2229.61 451.57 2224.59 459.16Q2219.57 466.74 2209.8 469.61L2231.93 512.85H2213.27L2192.85 471.41ZM2172.23 457.28H2198.67Q2202.91 457.28 2205.9 455.81Q2208.89 454.33 2210.51 451.46Q2212.13 448.58 2212.13 444.5V437.34Q2212.13 433.19 2210.51 430.35Q2208.89 427.5 2205.9 426.03Q2202.91 424.55 2198.67 424.55H2172.23Z M2340.03 512.85H2281.56V410H2298.21V498.11H2340.03Z M2426.66 512.85H2382.13V499.33H2396.07V423.52H2382.13V410H2426.66V423.52H2412.73V499.33H2426.66ZM2404.4 399.68Q2398.95 399.68 2396.51 397.16Q2394.07 394.65 2394.07 390.8V387.79Q2394.07 383.94 2396.51 381.43Q2398.95 378.91 2404.4 378.91Q2409.99 378.91 2412.36 381.43Q2414.73 383.94 2414.73 387.79V390.8Q2414.73 394.65 2412.36 397.16Q2409.99 399.68 2404.4 399.68Z M2539.06 512.85 2507.83 464.76 2493.75 480.97V512.85H2477.09V410H2493.75V443.5V462.21H2494.38L2509.05 443.5L2536.74 410H2556.26L2519.52 453.3L2559.1 512.85Z  M2710.98 512.85H2691.67L2657.93 410H2675.22L2691.47 460.8L2701.43 496.7H2702.04L2712.05 460.8L2728.39 410H2745.11Z M2855.77 512.85H2789.92V410H2855.77V424.74H2806.57V453.5H2851.19V468.18H2806.57V498.11H2855.77Z  M2971.01 512.85V410H3007.31Q3020.51 410 3030.3 415.7Q3040.09 421.41 3045.43 432.83Q3050.78 444.25 3050.78 461.43Q3050.78 478.6 3045.43 490.02Q3040.09 501.44 3030.3 507.15Q3020.51 512.85 3007.31 512.85ZM2987.67 498.11H3007.31Q3015.04 498.11 3020.83 494.84Q3026.63 491.58 3029.84 485.25Q3033.05 478.92 3033.05 469.64V453.22Q3033.05 443.87 3029.84 437.53Q3026.63 431.19 3020.83 427.96Q3015.04 424.74 3007.31 424.74H2987.67Z M3166.83 512.85H3100.97V410H3166.83V424.74H3117.63V453.5H3162.24V468.18H3117.63V498.11H3166.83Z M3279.04 512.85 3245.49 456.12 3234.18 434.22H3233.74V456.5V512.85H3217.82V410H3236.46L3270 466.73L3281.31 488.63H3281.75V466.35V410H3297.67V512.85Z M3418.35 512.85H3352.5V410H3418.35V424.74H3369.16V453.5H3413.77V468.18H3369.16V498.11H3418.35Z M3538.14 424.74H3507.5V512.85H3490.84V424.74H3460.21V410H3538.14Z M3623.89 512.85H3579.36V499.33H3593.29V423.52H3579.36V410H3623.89V423.52H3609.95V499.33H3623.89ZM3601.62 399.68Q3596.17 399.68 3593.73 397.16Q3591.29 394.65 3591.29 390.8V387.79Q3591.29 383.94 3593.73 381.43Q3596.17 378.91 3601.62 378.91Q3607.22 378.91 3609.58 381.43Q3611.95 383.94 3611.95 387.79V390.8Q3611.95 394.65 3609.58 397.16Q3607.22 399.68 3601.62 399.68Z M3674.31 512.85V410H3693.9L3710.9 442.05L3721.55 462.32H3722.09L3732.76 442.05L3749.7 410H3769.01V512.85H3753.09V451.06V434.39H3752.48L3744.29 450.68L3721.63 491.89L3699.16 450.75L3690.85 433.95H3690.23V451.06V512.85Z  M3969.44 512.85H3952.07L3943.01 485.01H3904.55L3895.49 512.85H3878.62L3913.7 410H3934.56ZM3938.91 470.65 3928.78 440.16 3924.04 425.27H3923.31L3918.63 440.16L3908.5 470.65Z M4023.38 514.56Q4017.93 514.56 4015.31 511.72Q4012.69 508.88 4012.69 504.63V502.27Q4012.69 497.87 4015.31 495.11Q4017.93 492.34 4023.38 492.34Q4028.91 492.34 4031.49 495.11Q4034.07 497.87 4034.07 502.27V504.63Q4034.07 508.88 4031.49 511.72Q4028.91 514.56 4023.38 514.56Z M4118.17 422.91Q4109.3 422.91 4104.48 426.49Q4099.65 430.07 4099.65 436.81Q4099.65 441.11 4101.41 443.91Q4103.17 446.71 4106.78 448.44Q4110.4 450.17 4115.94 451.33L4125.09 453.12Q4135.36 455.08 4141.95 458.91Q4148.54 462.74 4151.72 468.59Q4154.89 474.44 4154.89 482.61Q4154.89 496.2 4146.1 504.87Q4137.3 513.55 4121.3 514.47L4119.89 521.46L4120.4 521.97Q4122 521.52 4123.6 521.27Q4125.2 521.02 4126.71 521.02Q4131.05 521.02 4134.05 523.46Q4137.04 525.9 4137.04 530.93Q4137.04 535.44 4134.54 538.26Q4132.04 541.08 4128.04 542.37Q4124.04 543.67 4119.37 543.67Q4112.72 543.67 4108.84 541.61Q4104.95 539.56 4103.21 537.44L4109.31 530.45Q4110.7 532.14 4113 533.39Q4115.31 534.64 4118.61 534.64Q4121.41 534.64 4123.25 533.63Q4125.1 532.62 4125.1 530.45Q4125.1 528.58 4123.12 526.9Q4121.14 525.23 4114.64 524.47L4110.95 524.01L4112.87 514.47Q4101.86 513.67 4093.82 509.05Q4085.78 504.43 4079.99 497.21L4091.51 486.46Q4096.84 493.12 4103.44 496.53Q4110.04 499.94 4118.4 499.94Q4128.25 499.94 4133.29 495.45Q4138.32 490.97 4138.32 483.51Q4138.32 479.53 4136.82 476.61Q4135.31 473.69 4131.8 471.72Q4128.29 469.75 4122.33 468.66L4113.18 467Q4103.27 465.1 4096.56 461.41Q4089.86 457.71 4086.47 451.77Q4083.08 445.82 4083.08 437.7Q4083.08 428.5 4087.51 421.92Q4091.94 415.34 4100.06 411.79Q4108.17 408.23 4119.07 408.23Q4130.71 408.23 4139.26 412.28Q4147.8 416.34 4153.8 424.02L4142.13 434.32Q4138.19 429.12 4132.45 426.02Q4126.71 422.91 4118.17 422.91Z M4213.02 514.56Q4207.57 514.56 4204.95 511.72Q4202.33 508.88 4202.33 504.63V502.27Q4202.33 497.87 4204.95 495.11Q4207.57 492.34 4213.02 492.34Q4218.55 492.34 4221.13 495.11Q4223.71 497.87 4223.71 502.27V504.63Q4223.71 508.88 4221.13 511.72Q4218.55 514.56 4213.02 514.56Z"/></g></svg>